<svg xmlns="http://www.w3.org/2000/svg" viewBox="5 7.26727 90 85.47">
  <path d="M94.977,43.4l-2.429-27.069c-0.249-2.763-2.187-4.691-4.708-4.691c-0.867,0-2.183,0.246-3.511,1.419l-6.95,6.141  C60.669,3.106,33.992,3.29,17.522,19.763C9.448,27.835,5.001,38.567,5,49.985c0,11.419,4.445,22.156,12.521,30.227  c8.073,8.075,18.81,12.522,30.228,12.522c11.419,0,22.153-4.447,30.222-12.519c2.65-2.649,4.939-5.625,6.803-8.851  c2.049-3.542,0.836-8.079-2.709-10.125c-3.543-2.051-8.076-0.836-10.125,2.707c-1.217,2.103-2.711,4.047-4.448,5.781  c-5.271,5.274-12.283,8.18-19.741,8.18c-7.459,0-14.472-2.904-19.746-8.18c-5.273-5.271-8.178-12.283-8.178-19.742  c0.002-7.459,2.905-14.471,8.179-19.745c10.472-10.47,27.241-10.839,38.194-1.165l-6.688,5.909  c-1.549,1.368-2.195,3.245-1.729,5.021c0.464,1.778,1.946,3.101,3.963,3.538l26.563,5.747c0.424,0.092,0.854,0.138,1.276,0.138  c1.56,0,2.979-0.615,4-1.73C94.629,46.556,95.123,45.029,94.977,43.4z"/>
</svg>